<svg width="21" height="21" fill="none" xmlns="http://www.w3.org/2000/svg"><path d="M10.5 7.767A2.74 2.74 0 007.767 10.5a2.74 2.74 0 002.733 2.734 2.74 2.74 0 002.734-2.734A2.74 2.74 0 0010.5 7.767zm8.2 2.733c0-1.132.01-2.253-.054-3.383-.064-1.313-.363-2.478-1.323-3.438-.962-.961-2.124-1.259-3.437-1.322-1.132-.064-2.254-.054-3.384-.054-1.132 0-2.254-.01-3.384.054-1.312.063-2.477.363-3.437 1.322-.961.962-1.259 2.125-1.322 3.438-.064 1.132-.054 2.253-.054 3.383s-.01 2.254.054 3.384c.063 1.313.363 2.477 1.322 3.437.962.962 2.125 1.26 3.437 1.323 1.133.064 2.254.053 3.384.053 1.132 0 2.254.01 3.384-.053 1.313-.064 2.477-.363 3.437-1.323.962-.962 1.26-2.124 1.323-3.437.066-1.13.053-2.252.053-3.384zm-8.2 4.207A4.2 4.2 0 016.294 10.5 4.2 4.2 0 0110.5 6.294a4.2 4.2 0 014.206 4.206 4.2 4.2 0 01-4.206 4.207zm4.379-7.603a.981.981 0 110-1.964.981.981 0 110 1.964z" fill="#9D8E7A"/></svg>