<svg width="21" height="21" fill="none" xmlns="http://www.w3.org/2000/svg"><g clip-path="url(#clip0_130_1100)"><path fill-rule="evenodd" clip-rule="evenodd" d="M20.519 5.205c.145-.478 0-.83-.696-.83h-2.297c-.584 0-.854.304-1 .639 0 0-1.168 2.796-2.823 4.613-.535.526-.778.694-1.07.694-.147 0-.366-.168-.366-.646v-4.47c0-.575-.161-.83-.648-.83H8.007c-.365 0-.584.266-.584.519 0 .543.827.67.912 2.199v3.323c0 .729-.134.861-.426.861-.779 0-2.673-2.81-3.797-6.024-.218-.626-.439-.878-1.026-.878H.788c-.657 0-.788.304-.788.639 0 .596.779 3.561 3.627 7.482 1.899 2.677 4.572 4.129 7.007 4.129 1.46 0 1.64-.322 1.64-.878v-2.024c0-.644.139-.773.602-.773.34 0 .925.168 2.288 1.459 1.557 1.53 1.814 2.216 2.69 2.216h2.297c.657 0 .986-.322.797-.959-.209-.633-.953-1.553-1.939-2.644-.535-.622-1.338-1.29-1.582-1.626-.34-.43-.244-.621 0-1.004 0 0 2.8-3.872 3.09-5.187h.002z" fill="#9D8E7A"/></g><defs><clipPath id="clip0_130_1100"><path fill="#fff" d="M0 0h21v21H0z"/></clipPath></defs></svg>