<svg width="21" height="21" viewBox="0 0 21 21" fill="none" xmlns="http://www.w3.org/2000/svg">
<g clip-path="url(#clip0_130_1100)">
<path fill-rule="evenodd" clip-rule="evenodd" d="M20.5188 5.2045C20.664 4.72675 20.5188 4.375 19.8231 4.375H17.5263C16.9418 4.375 16.6722 4.67863 16.5261 5.01375C16.5261 5.01375 15.358 7.81025 13.7034 9.62675C13.1679 10.1535 12.9246 10.3206 12.6324 10.3206C12.4862 10.3206 12.2666 10.1535 12.2666 9.67488V5.2045C12.2666 4.6305 12.1056 4.375 11.6191 4.375H8.00712C7.64225 4.375 7.42262 4.641 7.42262 4.89387C7.42262 5.43725 8.25037 5.56325 8.33525 7.09275V10.416C8.33525 11.1449 8.20138 11.277 7.90912 11.277C7.13037 11.277 5.236 8.46737 4.11162 5.25262C3.89375 4.627 3.67325 4.375 3.08612 4.375H0.7875C0.13125 4.375 0 4.67863 0 5.01375C0 5.6105 0.77875 8.575 3.62687 12.4959C5.52563 15.1734 8.19875 16.625 10.6339 16.625C12.0942 16.625 12.2745 16.303 12.2745 15.7474V13.7235C12.2745 13.0786 12.4128 12.95 12.8756 12.95C13.2169 12.95 13.8005 13.118 15.1637 14.4086C16.7213 15.939 16.9776 16.625 17.8544 16.625H20.1513C20.8075 16.625 21.1365 16.303 20.9475 15.666C20.7393 15.0325 19.9955 14.1129 19.0094 13.0217C18.4739 12.4005 17.6706 11.7311 17.4265 11.396C17.0861 10.9664 17.1833 10.7747 17.4265 10.3924C17.4265 10.3924 20.2265 6.51962 20.5179 5.2045H20.5188Z" fill="#9D8E7A"/>
</g>
<defs>
<clipPath id="clip0_130_1100">
<rect width="21" height="21" fill="white"/>
</clipPath>
</defs>
</svg>
