<svg width="153" height="95" fill="none" xmlns="http://www.w3.org/2000/svg"><path d="M33.43 68.733c-1.92 2.89-5.88 3.968-9.118 3.88h-.46v3.199s1.421-.019 3.696-.29c10.439-3.18 21.235-2.101 31.671.416-7.916-2.157-15.474-5.395-23.548-6.663a36.278 36.278 0 01-2.242-.542z" fill="#9D8E7A"/><path d="M105.267 72.009c-.511.013-1.017.016-1.517.01a54.84 54.84 0 01-2.569-.095 50.925 50.925 0 01-3.784-.905c-2.79-.805-5.494-1.886-8.108-3.154-3.453-1.669-6.665-3.791-9.647-6.217l1.637-2.872c3.27 2.459 8.663 6.061 14.943 8.483 0 0 10.343 4.395 17.428 2.205 0 0-4.201 2-8.383 2.545zm-3.93 1.315c-17.21 1.722-36.528 2.013-43.549-15.525-.81-.738-1.57-1.88-2.24-2.807-3.359-4.63-4.906-9.756-5.617-13.554l1.377-9.197c1.716 5.885 5.455 15.519 12.977 23.967.501.563 1.092 1.562 1.566 1.95 5.88 15.14 21.602 15.507 36.082 14.595h.001l.014-.001c.353-.022.705-.045 1.057-.069.78-.054 1.554-.119 2.324-.197a71.53 71.53 0 01-3.992.838zm-2.076.344c-5.755.631-11.77 1.203-17.625 1.22-3.777-.056-7.467-.39-10.979-1.085a65.486 65.486 0 01-6.918-1.999c-1.659-.663-3.253-1.44-4.754-2.372a26.905 26.905 0 01-3.076-2.222 26.02 26.02 0 01-2.775-2.699 26.982 26.982 0 01-2.441-3.212 30.111 30.111 0 01-2.072-3.764 7.319 7.319 0 00-.929-1.139l.88-5.882c.762.968 2.066 2.494 3.976 4.31a53.22 53.22 0 002.116 1.899c6.678 19.023 27.612 18.735 46.02 16.718-.469.08-.945.155-1.423.227zm-9.18 1.626l-.014.001.02-.001h-.006zm-28.803-3.91a28.311 28.311 0 01-3.363-1.781c-1.986-1.387-4.14-2.822-5.838-4.99a25.571 25.571 0 01-2.4-3.283 29.464 29.464 0 01-2.005-3.878 33.26 33.26 0 002.218 3.846 29.508 29.508 0 005.446 6.106c1.01.856 2.067 1.63 3.165 2.332a31.706 31.706 0 004.154 2.22c-.464-.18-.925-.37-1.377-.572zm18.17-9.395c.68.599 1.375 1.184 2.093 1.741a49.308 49.308 0 007.416 4.79c2.025 1.085 4.153 1.97 6.331 2.708-6.76-1.213-12.412-3.73-17.13-6.98l1.29-2.26zm-.361-18.324l-2.272 3.965L68.71 33.6c3.051 3.418 6.529 6.883 10.376 10.065zm7.642 5.554c5.83 3.657 12.286 6.397 19.242 7.38l1.554 8.777c-10.885.827-20.108-5.047-24.923-8.92l4.127-7.237zm13.684-23.996l5.388 30.418c-6.717-1.046-12.93-3.758-18.538-7.357l13.15-23.061zm23.023 43.512c-3.414-1.237-5.419-8.625-5.419-8.625l-.84-4.576-.221-1.09s-.192-1.161-.538-3.049L107.063.457h-3.218L79.678 42.633c-5.281-4.499-9.837-9.57-13.545-14.298a125.26 125.26 0 01-1.892-2.476L49.57.457h-.477L48.89 0l-.162.457h-2.377L35.948 59.663a1201.43 1201.43 0 01-.62 3.513c-1.657 8.987 16.651 6.476 23.462 11.07 0 0-.247-.766-.076-.728l.134-1.246s24 10.058 49.355 4.16c3.499-.813 5.813-1.827 8.212-2.358 9.896-2.132 14.058.53 14.058.53v-3.236s-3.621-1.396-7.037-2.633zM4.804 94.055l-2.773-4.693-.73 4.875H0l1.35-7.683h.365l3.089 5.349 3.065-5.349h.365l1.41 7.683h-1.3l-.864-4.874-2.676 4.692zm21.793 0l-2.773-4.693-.73 4.875h-1.301l1.35-7.683h.365l3.09 5.349 3.064-5.349h.365l1.41 7.683h-1.3l-.864-4.874-2.676 4.692zm23.008-5.337l-1.313 2.905h2.664l-1.35-2.905zm-3.855 5.518l3.673-7.682h.365l3.77 7.682h-1.374l-.742-1.568h-3.624l-.706 1.568H45.75zm23.165-6.576h-2.493v-1.106h6.215v1.107h-2.493v6.576h-1.229V87.66zm18.519-1.105h5.521v1.142h-4.342V89.8h3.807v1.154h-3.807v2.14h4.391v1.142h-5.57v-7.681zm21.888 3.597c.45.086.985.134 1.423.134.949 0 1.849-.28 1.849-1.374 0-.863-.633-1.24-1.739-1.24h-1.533v2.48zm-1.228-3.598h3.052c1.849 0 2.688.887 2.688 2.274 0 .85-.34 1.677-1.289 2.2.56 1.009 1.18 2.175 1.751 3.209h-1.338l-1.544-2.918a8.388 8.388 0 01-.572.025c-.499 0-.997-.05-1.52-.134v3.027h-1.228v-7.683zm21.193.001h1.228v7.681h-1.228v-7.681zm19.76 2.163l-1.314 2.905h2.664l-1.35-2.905zm-3.856 5.518l3.674-7.682h.364L153 94.236h-1.375l-.742-1.568h-3.624l-.705 1.568h-1.363z" fill="#9D8E7A"/></svg>