<svg width="93" height="68" fill="none" xmlns="http://www.w3.org/2000/svg"><path d="M8.32 59.702c-1.668 2.51-5.107 3.447-7.92 3.37H0v2.779s1.235-.017 3.21-.252c9.068-2.763 18.445-1.826 27.51.361-6.876-1.874-13.44-4.686-20.453-5.787a31.545 31.545 0 01-1.948-.471z" fill="#9D8E7A"/><path d="M70.717 62.547c-.443.012-.882.014-1.317.009-.757-.01-1.5-.038-2.232-.082a44.27 44.27 0 01-3.287-.787c-2.422-.699-4.772-1.638-7.042-2.739-2.999-1.45-5.79-3.293-8.38-5.4l1.423-2.495c2.84 2.136 7.524 5.265 12.98 7.369h-.002s8.986 3.817 15.14 1.915c0 0-3.649 1.737-7.281 2.21zm-3.413 1.143c-14.948 1.495-31.728 1.748-37.826-13.486-.704-.64-1.364-1.633-1.947-2.437-2.917-4.023-4.26-8.475-4.878-11.774l1.196-7.988c1.49 5.111 4.738 13.48 11.272 20.818.435.489.948 1.356 1.36 1.694 5.107 13.15 18.764 13.469 31.34 12.676h.015l.917-.06a63.42 63.42 0 002.02-.172 62.11 62.11 0 01-3.468.729zm-1.803.299c-5 .548-10.223 1.045-15.31 1.058-3.28-.048-6.485-.337-9.536-.941a56.871 56.871 0 01-6.008-1.737 26.28 26.28 0 01-4.13-2.06 23.37 23.37 0 01-2.672-1.93 22.6 22.6 0 01-2.41-2.344 23.441 23.441 0 01-2.12-2.79 26.167 26.167 0 01-1.8-3.27 6.358 6.358 0 00-.807-.99l.765-5.108c.661.84 1.794 2.166 3.453 3.743a45.815 45.815 0 001.838 1.65c5.8 16.523 23.984 16.273 39.973 14.52-.408.07-.82.136-1.236.199zM57.527 65.4h-.012.017-.005zM32.51 62.004a24.584 24.584 0 01-2.922-1.547c-1.725-1.204-3.596-2.451-5.07-4.334a22.228 22.228 0 01-2.086-2.852 25.58 25.58 0 01-1.74-3.368 28.878 28.878 0 001.926 3.341 25.615 25.615 0 004.73 5.303 25.217 25.217 0 002.75 2.026 27.53 27.53 0 003.608 1.929 26.37 26.37 0 01-1.196-.498zm15.782-8.16c.592.52 1.194 1.029 1.818 1.512a42.838 42.838 0 006.441 4.16c1.76.943 3.608 1.711 5.5 2.352-5.872-1.052-10.781-3.238-14.879-6.062l1.12-1.962zm-.314-15.917l-1.973 3.444-7.04-12.187c2.651 2.97 5.672 5.98 9.013 8.743zm6.638 4.825c5.064 3.176 10.672 5.556 16.714 6.41l1.35 7.624c-9.455.718-17.466-4.384-21.648-7.748l3.584-6.286zM66.501 21.91l4.68 26.421c-5.834-.908-11.23-3.264-16.102-6.39L66.5 21.908zm19.998 37.795c-2.965-1.075-4.706-7.492-4.706-7.492l-.73-3.975-.193-.946s-.166-1.01-.467-2.649L72.278.397h-2.796L48.491 37.031c-4.588-3.907-8.544-8.312-11.765-12.419a108.7 108.7 0 01-1.644-2.15L22.34.396h-.414L21.75 0l-.141.397h-2.065l-9.037 51.426c-.198 1.13-.38 2.16-.538 3.052-1.44 7.806 14.463 5.625 20.378 9.615 0 0-.214-.665-.065-.632l.116-1.082s20.846 8.736 42.87 3.614c3.039-.707 5.05-1.588 7.133-2.049 8.596-1.852 12.21.461 12.21.461V61.99s-3.145-1.212-6.112-2.286z" fill="#9D8E7A"/></svg>